{
  "accessors": [
    {
      "bufferView": 0,
      "componentType": 5126,
      "count": 200,
      "max": [
        0.5,
        0.39250001311302185,
        0.4499998986721039
      ],
      "min": [
        -0.5,
        0.35749998688697815,
        -0.44999998807907104
      ],
      "name": "bridge_Material0/POSITION",
      "type": "VEC3"
    },
    {
      "bufferView": 0,
      "byteOffset": 12,
      "componentType": 5126,
      "count": 200,
      "name": "bridge_Material0/NORMAL",
      "type": "VEC3"
    },
    {
      "bufferView": 0,
      "byteOffset": 24,
      "componentType": 5126,
      "count": 200,
      "name": "bridge_Material0/TEXCOORD_0",
      "type": "VEC2"
    },
    {
      "bufferView": 1,
      "componentType": 5125,
      "count": 360,
      "name": "bridge_Material0/INDICES",
      "type": "SCALAR"
    },
    {
      "bufferView": 2,
      "componentType": 5126,
      "count": 224,
      "max": [
        0.4300000071525574,
        0.35749998688697815,
        0.5
      ],
      "min": [
        -0.4300000071525574,
        0.0,
        -0.5
      ],
      "name": "bridge_Material0/POSITION",
      "type": "VEC3"
    },
    {
      "bufferView": 2,
      "byteOffset": 12,
      "componentType": 5126,
      "count": 224,
      "name": "bridge_Material0/NORMAL",
      "type": "VEC3"
    },
    {
      "bufferView": 2,
      "byteOffset": 24,
      "componentType": 5126,
      "count": 224,
      "name": "bridge_Material0/TEXCOORD_0",
      "type": "VEC2"
    },
    {
      "bufferView": 3,
      "componentType": 5125,
      "count": 444,
      "name": "bridge_Material0/INDICES",
      "type": "SCALAR"
    }
  ],
  "asset": {
    "copyright": "Copyright (c) 2018-2020 Chukong Technologies Inc.",
    "generator": "FBX-glTF-conv",
    "version": "2.0"
  },
  "bufferViews": [
    {
      "buffer": 0,
      "byteLength": 6400,
      "byteStride": 32,
      "name": "bridge_Material0",
      "target": 34962
    },
    {
      "buffer": 0,
      "byteLength": 1440,
      "byteOffset": 6400
    },
    {
      "buffer": 0,
      "byteLength": 7168,
      "byteOffset": 7840,
      "byteStride": 32,
      "name": "bridge_Material0",
      "target": 34962
    },
    {
      "buffer": 0,
      "byteLength": 1776,
      "byteOffset": 15008
    }
  ],
  "buffers": [
    {
      "byteLength": 16784,
      "uri": "out.bin"
    }
  ],
  "materials": [
    {
      "name": "wood",
      "pbrMetallicRoughness": {
        "baseColorFactor": [
          0.8666666746139526,
          0.533333420753479,
          0.30980390310287476,
          1.0
        ],
        "metallicFactor": 0.4000000059604645,
        "roughnessFactor": 0.30151134729385376
      }
    },
    {
      "name": "woodDark",
      "pbrMetallicRoughness": {
        "baseColorFactor": [
          0.6274510025978088,
          0.384313702583313,
          0.2235293984413147,
          1.0
        ],
        "metallicFactor": 0.4000000059604645,
        "roughnessFactor": 0.30151134729385376
      }
    }
  ],
  "meshes": [
    {
      "name": "bridge_Material0",
      "primitives": [
        {
          "attributes": {
            "NORMAL": 1,
            "POSITION": 0,
            "TEXCOORD_0": 2
          },
          "indices": 3,
          "material": 0
        },
        {
          "attributes": {
            "NORMAL": 5,
            "POSITION": 4,
            "TEXCOORD_0": 6
          },
          "indices": 7,
          "material": 1
        }
      ]
    }
  ],
  "nodes": [
    {
      "mesh": 0,
      "name": "bridge",
      "translation": [
        1.0,
        0.0,
        -0.5
      ]
    }
  ],
  "scenes": [
    {
      "nodes": [
        0
      ]
    }
  ]
}