{
  "accessors": [
    {
      "bufferView": 0,
      "componentType": 5126,
      "count": 192,
      "max": [
        0.2621229887008667,
        0.29499998688697815,
        0.25940608978271484
      ],
      "min": [
        -0.2621229887008667,
        0.05999999865889549,
        -0.25940608978271484
      ],
      "name": "mushrooms_Material0/POSITION",
      "type": "VEC3"
    },
    {
      "bufferView": 0,
      "byteOffset": 12,
      "componentType": 5126,
      "count": 192,
      "name": "mushrooms_Material0/NORMAL",
      "type": "VEC3"
    },
    {
      "bufferView": 0,
      "byteOffset": 24,
      "componentType": 5126,
      "count": 192,
      "name": "mushrooms_Material0/TEXCOORD_0",
      "type": "VEC2"
    },
    {
      "bufferView": 1,
      "componentType": 5125,
      "count": 342,
      "name": "mushrooms_Material0/INDICES",
      "type": "SCALAR"
    },
    {
      "bufferView": 2,
      "componentType": 5126,
      "count": 60,
      "max": [
        0.18037299811840057,
        0.18000000715255737,
        0.19373300671577454
      ],
      "min": [
        -0.18037299811840057,
        0.0,
        -0.19373300671577454
      ],
      "name": "mushrooms_Material0/POSITION",
      "type": "VEC3"
    },
    {
      "bufferView": 2,
      "byteOffset": 12,
      "componentType": 5126,
      "count": 60,
      "name": "mushrooms_Material0/NORMAL",
      "type": "VEC3"
    },
    {
      "bufferView": 2,
      "byteOffset": 24,
      "componentType": 5126,
      "count": 60,
      "name": "mushrooms_Material0/TEXCOORD_0",
      "type": "VEC2"
    },
    {
      "bufferView": 3,
      "componentType": 5125,
      "count": 90,
      "name": "mushrooms_Material0/INDICES",
      "type": "SCALAR"
    }
  ],
  "asset": {
    "copyright": "Copyright (c) 2018-2020 Chukong Technologies Inc.",
    "generator": "FBX-glTF-conv",
    "version": "2.0"
  },
  "bufferViews": [
    {
      "buffer": 0,
      "byteLength": 6144,
      "byteStride": 32,
      "name": "mushrooms_Material0",
      "target": 34962
    },
    {
      "buffer": 0,
      "byteLength": 1368,
      "byteOffset": 6144
    },
    {
      "buffer": 0,
      "byteLength": 1920,
      "byteOffset": 7512,
      "byteStride": 32,
      "name": "mushrooms_Material0",
      "target": 34962
    },
    {
      "buffer": 0,
      "byteLength": 360,
      "byteOffset": 9432
    }
  ],
  "buffers": [
    {
      "byteLength": 9792,
      "uri": "out.bin"
    }
  ],
  "materials": [
    {
      "name": "heart",
      "pbrMetallicRoughness": {
        "baseColorFactor": [
          0.9764705896377563,
          0.29019609093666077,
          0.37254899740219116,
          1.0
        ],
        "metallicFactor": 0.4000000059604645,
        "roughnessFactor": 0.30151134729385376
      }
    },
    {
      "name": "dirt",
      "pbrMetallicRoughness": {
        "baseColorFactor": [
          0.8784313797950745,
          0.5764706134796143,
          0.37254899740219116,
          1.0
        ],
        "metallicFactor": 0.4000000059604645,
        "roughnessFactor": 0.30151134729385376
      }
    }
  ],
  "meshes": [
    {
      "name": "mushrooms_Material0",
      "primitives": [
        {
          "attributes": {
            "NORMAL": 1,
            "POSITION": 0,
            "TEXCOORD_0": 2
          },
          "indices": 3,
          "material": 0
        },
        {
          "attributes": {
            "NORMAL": 5,
            "POSITION": 4,
            "TEXCOORD_0": 6
          },
          "indices": 7,
          "material": 1
        }
      ]
    }
  ],
  "nodes": [
    {
      "mesh": 0,
      "name": "mushrooms",
      "translation": [
        1.0,
        0.0,
        -0.5
      ]
    }
  ],
  "scenes": [
    {
      "nodes": [
        0
      ]
    }
  ]
}