{
  "accessors": [
    {
      "bufferView": 0,
      "componentType": 5126,
      "count": 153,
      "max": [
        0.3265494108200073,
        0.4000000059604645,
        0.3311521112918854
      ],
      "min": [
        -0.3265494108200073,
        0.0,
        -0.3311521112918854
      ],
      "name": "rocks_Material0/POSITION",
      "type": "VEC3"
    },
    {
      "bufferView": 0,
      "byteOffset": 12,
      "componentType": 5126,
      "count": 153,
      "name": "rocks_Material0/NORMAL",
      "type": "VEC3"
    },
    {
      "bufferView": 0,
      "byteOffset": 24,
      "componentType": 5126,
      "count": 153,
      "name": "rocks_Material0/TEXCOORD_0",
      "type": "VEC2"
    },
    {
      "bufferView": 1,
      "componentType": 5125,
      "count": 297,
      "name": "rocks_Material0/INDICES",
      "type": "SCALAR"
    },
    {
      "bufferView": 2,
      "componentType": 5126,
      "count": 3,
      "max": [
        0.19345860183238983,
        0.267520010471344,
        0.036675650626420975
      ],
      "min": [
        0.19068069756031036,
        0.26344600319862366,
        0.035821449011564255
      ],
      "name": "rocks_Material0/POSITION",
      "type": "VEC3"
    },
    {
      "bufferView": 2,
      "byteOffset": 12,
      "componentType": 5126,
      "count": 3,
      "name": "rocks_Material0/NORMAL",
      "type": "VEC3"
    },
    {
      "bufferView": 2,
      "byteOffset": 24,
      "componentType": 5126,
      "count": 3,
      "name": "rocks_Material0/TEXCOORD_0",
      "type": "VEC2"
    },
    {
      "bufferView": 3,
      "componentType": 5125,
      "count": 3,
      "name": "rocks_Material0/INDICES",
      "type": "SCALAR"
    }
  ],
  "asset": {
    "copyright": "Copyright (c) 2018-2020 Chukong Technologies Inc.",
    "generator": "FBX-glTF-conv",
    "version": "2.0"
  },
  "bufferViews": [
    {
      "buffer": 0,
      "byteLength": 4896,
      "byteStride": 32,
      "name": "rocks_Material0",
      "target": 34962
    },
    {
      "buffer": 0,
      "byteLength": 1188,
      "byteOffset": 4896
    },
    {
      "buffer": 0,
      "byteLength": 96,
      "byteOffset": 6084,
      "byteStride": 32,
      "name": "rocks_Material0",
      "target": 34962
    },
    {
      "buffer": 0,
      "byteLength": 12,
      "byteOffset": 6180
    }
  ],
  "buffers": [
    {
      "byteLength": 6192,
      "uri": "out.bin"
    }
  ],
  "materials": [
    {
      "name": "rock",
      "pbrMetallicRoughness": {
        "baseColorFactor": [
          0.6666666865348816,
          0.686274528503418,
          0.7568628191947937,
          1.0
        ],
        "metallicFactor": 0.4000000059604645,
        "roughnessFactor": 0.30151134729385376
      }
    },
    {
      "name": "_defaultMat",
      "pbrMetallicRoughness": {
        "metallicFactor": 0.4000000059604645,
        "roughnessFactor": 0.30151134729385376
      }
    }
  ],
  "meshes": [
    {
      "name": "rocks_Material0",
      "primitives": [
        {
          "attributes": {
            "NORMAL": 1,
            "POSITION": 0,
            "TEXCOORD_0": 2
          },
          "indices": 3,
          "material": 0
        },
        {
          "attributes": {
            "NORMAL": 5,
            "POSITION": 4,
            "TEXCOORD_0": 6
          },
          "indices": 7,
          "material": 1
        }
      ]
    }
  ],
  "nodes": [
    {
      "mesh": 0,
      "name": "rocks",
      "translation": [
        1.0,
        0.0,
        -0.5
      ]
    }
  ],
  "scenes": [
    {
      "nodes": [
        0
      ]
    }
  ]
}