{
  "accessors": [
    {
      "bufferView": 0,
      "componentType": 5126,
      "count": 108,
      "max": [
        0.17320510745048523,
        0.4000000059604645,
        0.05000000074505806
      ],
      "min": [
        -0.17320510745048523,
        0.0,
        -0.05000000074505806
      ],
      "name": "coinGold_Material0/POSITION",
      "type": "VEC3"
    },
    {
      "bufferView": 0,
      "byteOffset": 12,
      "componentType": 5126,
      "count": 108,
      "name": "coinGold_Material0/NORMAL",
      "type": "VEC3"
    },
    {
      "bufferView": 0,
      "byteOffset": 24,
      "componentType": 5126,
      "count": 108,
      "name": "coinGold_Material0/TEXCOORD_0",
      "type": "VEC2"
    },
    {
      "bufferView": 1,
      "componentType": 5125,
      "count": 204,
      "name": "coinGold_Material0/INDICES",
      "type": "SCALAR"
    },
    {
      "bufferView": 2,
      "componentType": 5126,
      "count": 24,
      "max": [
        0.12361150234937668,
        0.3427341878414154,
        0.009999998845160007
      ],
      "min": [
        -0.12361139804124832,
        0.05726582929491997,
        -0.009999998845160007
      ],
      "name": "coinGold_Material0/POSITION",
      "type": "VEC3"
    },
    {
      "bufferView": 2,
      "byteOffset": 12,
      "componentType": 5126,
      "count": 24,
      "name": "coinGold_Material0/NORMAL",
      "type": "VEC3"
    },
    {
      "bufferView": 2,
      "byteOffset": 24,
      "componentType": 5126,
      "count": 24,
      "name": "coinGold_Material0/TEXCOORD_0",
      "type": "VEC2"
    },
    {
      "bufferView": 3,
      "componentType": 5125,
      "count": 72,
      "name": "coinGold_Material0/INDICES",
      "type": "SCALAR"
    }
  ],
  "asset": {
    "copyright": "Copyright (c) 2018-2020 Chukong Technologies Inc.",
    "generator": "FBX-glTF-conv",
    "version": "2.0"
  },
  "bufferViews": [
    {
      "buffer": 0,
      "byteLength": 3456,
      "byteStride": 32,
      "name": "coinGold_Material0",
      "target": 34962
    },
    {
      "buffer": 0,
      "byteLength": 816,
      "byteOffset": 3456
    },
    {
      "buffer": 0,
      "byteLength": 768,
      "byteOffset": 4272,
      "byteStride": 32,
      "name": "coinGold_Material0",
      "target": 34962
    },
    {
      "buffer": 0,
      "byteLength": 288,
      "byteOffset": 5040
    }
  ],
  "buffers": [
    {
      "byteLength": 5328,
      "uri": "out.bin"
    }
  ],
  "materials": [
    {
      "name": "gold",
      "pbrMetallicRoughness": {
        "baseColorFactor": [
          0.9607843160629272,
          0.7254902124404907,
          0.2588235139846802,
          1.0
        ],
        "metallicFactor": 0.4000000059604645,
        "roughnessFactor": 0.30151134729385376
      }
    },
    {
      "name": "wood",
      "pbrMetallicRoughness": {
        "baseColorFactor": [
          0.8666666746139526,
          0.533333420753479,
          0.30980390310287476,
          1.0
        ],
        "metallicFactor": 0.4000000059604645,
        "roughnessFactor": 0.30151134729385376
      }
    }
  ],
  "meshes": [
    {
      "name": "coinGold_Material0",
      "primitives": [
        {
          "attributes": {
            "NORMAL": 1,
            "POSITION": 0,
            "TEXCOORD_0": 2
          },
          "indices": 3,
          "material": 0
        },
        {
          "attributes": {
            "NORMAL": 5,
            "POSITION": 4,
            "TEXCOORD_0": 6
          },
          "indices": 7,
          "material": 1
        }
      ]
    }
  ],
  "nodes": [
    {
      "mesh": 0,
      "name": "coinGold",
      "translation": [
        1.0,
        0.0,
        -0.5
      ]
    }
  ],
  "scenes": [
    {
      "nodes": [
        0
      ]
    }
  ]
}