{
  "accessors": [
    {
      "bufferView": 0,
      "componentType": 5126,
      "count": 434,
      "max": [
        0.5,
        0.5,
        0.5
      ],
      "min": [
        -0.5,
        0.0,
        -0.5
      ],
      "name": "blockMovingRed_Material0/POSITION",
      "type": "VEC3"
    },
    {
      "bufferView": 0,
      "byteOffset": 12,
      "componentType": 5126,
      "count": 434,
      "name": "blockMovingRed_Material0/NORMAL",
      "type": "VEC3"
    },
    {
      "bufferView": 0,
      "byteOffset": 24,
      "componentType": 5126,
      "count": 434,
      "name": "blockMovingRed_Material0/TEXCOORD_0",
      "type": "VEC2"
    },
    {
      "bufferView": 1,
      "componentType": 5125,
      "count": 834,
      "name": "blockMovingRed_Material0/INDICES",
      "type": "SCALAR"
    },
    {
      "bufferView": 2,
      "componentType": 5126,
      "count": 614,
      "max": [
        0.5,
        0.5,
        0.5
      ],
      "min": [
        -0.5,
        0.0,
        -0.5
      ],
      "name": "blockMovingRed_Material0/POSITION",
      "type": "VEC3"
    },
    {
      "bufferView": 2,
      "byteOffset": 12,
      "componentType": 5126,
      "count": 614,
      "name": "blockMovingRed_Material0/NORMAL",
      "type": "VEC3"
    },
    {
      "bufferView": 2,
      "byteOffset": 24,
      "componentType": 5126,
      "count": 614,
      "name": "blockMovingRed_Material0/TEXCOORD_0",
      "type": "VEC2"
    },
    {
      "bufferView": 3,
      "componentType": 5125,
      "count": 1302,
      "name": "blockMovingRed_Material0/INDICES",
      "type": "SCALAR"
    }
  ],
  "asset": {
    "copyright": "Copyright (c) 2018-2020 Chukong Technologies Inc.",
    "generator": "FBX-glTF-conv",
    "version": "2.0"
  },
  "bufferViews": [
    {
      "buffer": 0,
      "byteLength": 13888,
      "byteStride": 32,
      "name": "blockMovingRed_Material0",
      "target": 34962
    },
    {
      "buffer": 0,
      "byteLength": 3336,
      "byteOffset": 13888
    },
    {
      "buffer": 0,
      "byteLength": 19648,
      "byteOffset": 17224,
      "byteStride": 32,
      "name": "blockMovingRed_Material0",
      "target": 34962
    },
    {
      "buffer": 0,
      "byteLength": 5208,
      "byteOffset": 36872
    }
  ],
  "buffers": [
    {
      "byteLength": 42080,
      "uri": "out.bin"
    }
  ],
  "materials": [
    {
      "name": "gold",
      "pbrMetallicRoughness": {
        "baseColorFactor": [
          0.9607843160629272,
          0.7254902124404907,
          0.2588235139846802,
          1.0
        ],
        "metallicFactor": 0.4000000059604645,
        "roughnessFactor": 0.30151134729385376
      }
    },
    {
      "name": "heart",
      "pbrMetallicRoughness": {
        "baseColorFactor": [
          0.9764705896377563,
          0.29019609093666077,
          0.37254899740219116,
          1.0
        ],
        "metallicFactor": 0.4000000059604645,
        "roughnessFactor": 0.30151134729385376
      }
    }
  ],
  "meshes": [
    {
      "name": "blockMovingRed_Material0",
      "primitives": [
        {
          "attributes": {
            "NORMAL": 1,
            "POSITION": 0,
            "TEXCOORD_0": 2
          },
          "indices": 3,
          "material": 0
        },
        {
          "attributes": {
            "NORMAL": 5,
            "POSITION": 4,
            "TEXCOORD_0": 6
          },
          "indices": 7,
          "material": 1
        }
      ]
    }
  ],
  "nodes": [
    {
      "mesh": 0,
      "name": "blockMovingRed",
      "translation": [
        1.0,
        0.0,
        -0.5
      ]
    }
  ],
  "scenes": [
    {
      "nodes": [
        0
      ]
    }
  ]
}