{
  "accessors": [
    {
      "bufferView": 0,
      "componentType": 5126,
      "count": 72,
      "max": [
        0.27570921182632446,
        0.163502499461174,
        0.1851615011692047
      ],
      "min": [
        -0.27570921182632446,
        0.0,
        -0.29238080978393555
      ],
      "name": "plant/POSITION",
      "type": "VEC3"
    },
    {
      "bufferView": 0,
      "byteOffset": 12,
      "componentType": 5126,
      "count": 72,
      "name": "plant/NORMAL",
      "type": "VEC3"
    },
    {
      "bufferView": 0,
      "byteOffset": 24,
      "componentType": 5126,
      "count": 72,
      "name": "plant/TEXCOORD_0",
      "type": "VEC2"
    },
    {
      "bufferView": 1,
      "componentType": 5125,
      "count": 108,
      "name": "plant/INDICES",
      "type": "SCALAR"
    }
  ],
  "asset": {
    "copyright": "Copyright (c) 2018-2020 Chukong Technologies Inc.",
    "generator": "FBX-glTF-conv",
    "version": "2.0"
  },
  "bufferViews": [
    {
      "buffer": 0,
      "byteLength": 2304,
      "byteStride": 32,
      "name": "plant",
      "target": 34962
    },
    {
      "buffer": 0,
      "byteLength": 432,
      "byteOffset": 2304
    }
  ],
  "buffers": [
    {
      "byteLength": 2736,
      "uri": "out.bin"
    }
  ],
  "meshes": [
    {
      "name": "plant",
      "primitives": [
        {
          "attributes": {
            "NORMAL": 1,
            "POSITION": 0,
            "TEXCOORD_0": 2
          },
          "indices": 3
        }
      ]
    }
  ],
  "nodes": [
    {
      "mesh": 0,
      "name": "plant",
      "translation": [
        1.0,
        0.0,
        -0.5
      ]
    }
  ],
  "scenes": [
    {
      "nodes": [
        0
      ]
    }
  ]
}