{
  "accessors": [
    {
      "bufferView": 0,
      "componentType": 5126,
      "count": 208,
      "max": [
        1.0,
        1.0,
        0.5
      ],
      "min": [
        -1.0,
        0.0,
        -0.5
      ],
      "name": "blockCurve_Material0/POSITION",
      "type": "VEC3"
    },
    {
      "bufferView": 0,
      "byteOffset": 12,
      "componentType": 5126,
      "count": 208,
      "name": "blockCurve_Material0/NORMAL",
      "type": "VEC3"
    },
    {
      "bufferView": 0,
      "byteOffset": 24,
      "componentType": 5126,
      "count": 208,
      "name": "blockCurve_Material0/TEXCOORD_0",
      "type": "VEC2"
    },
    {
      "bufferView": 1,
      "componentType": 5125,
      "count": 384,
      "name": "blockCurve_Material0/INDICES",
      "type": "SCALAR"
    },
    {
      "bufferView": 2,
      "componentType": 5126,
      "count": 30,
      "max": [
        0.8500000238418579,
        0.8500000238418579,
        0.4000000059604645
      ],
      "min": [
        -0.8500000238418579,
        0.0,
        -0.4000000059604645
      ],
      "name": "blockCurve_Material0/POSITION",
      "type": "VEC3"
    },
    {
      "bufferView": 2,
      "byteOffset": 12,
      "componentType": 5126,
      "count": 30,
      "name": "blockCurve_Material0/NORMAL",
      "type": "VEC3"
    },
    {
      "bufferView": 2,
      "byteOffset": 24,
      "componentType": 5126,
      "count": 30,
      "name": "blockCurve_Material0/TEXCOORD_0",
      "type": "VEC2"
    },
    {
      "bufferView": 3,
      "componentType": 5125,
      "count": 72,
      "name": "blockCurve_Material0/INDICES",
      "type": "SCALAR"
    }
  ],
  "asset": {
    "copyright": "Copyright (c) 2018-2020 Chukong Technologies Inc.",
    "generator": "FBX-glTF-conv",
    "version": "2.0"
  },
  "bufferViews": [
    {
      "buffer": 0,
      "byteLength": 6656,
      "byteStride": 32,
      "name": "blockCurve_Material0",
      "target": 34962
    },
    {
      "buffer": 0,
      "byteLength": 1536,
      "byteOffset": 6656
    },
    {
      "buffer": 0,
      "byteLength": 960,
      "byteOffset": 8192,
      "byteStride": 32,
      "name": "blockCurve_Material0",
      "target": 34962
    },
    {
      "buffer": 0,
      "byteLength": 288,
      "byteOffset": 9152
    }
  ],
  "buffers": [
    {
      "byteLength": 9440,
      "uri": "out.bin"
    }
  ],
  "materials": [
    {
      "name": "grass",
      "pbrMetallicRoughness": {
        "baseColorFactor": [
          0.10588239878416061,
          0.7529411911964417,
          0.5254902243614197,
          1.0
        ],
        "metallicFactor": 0.4000000059604645,
        "roughnessFactor": 0.30151134729385376
      }
    },
    {
      "name": "dirt",
      "pbrMetallicRoughness": {
        "baseColorFactor": [
          0.8784313797950745,
          0.5764706134796143,
          0.37254899740219116,
          1.0
        ],
        "metallicFactor": 0.4000000059604645,
        "roughnessFactor": 0.30151134729385376
      }
    }
  ],
  "meshes": [
    {
      "name": "blockCurve_Material0",
      "primitives": [
        {
          "attributes": {
            "NORMAL": 1,
            "POSITION": 0,
            "TEXCOORD_0": 2
          },
          "indices": 3,
          "material": 0
        },
        {
          "attributes": {
            "NORMAL": 5,
            "POSITION": 4,
            "TEXCOORD_0": 6
          },
          "indices": 7,
          "material": 1
        }
      ]
    }
  ],
  "nodes": [
    {
      "mesh": 0,
      "name": "blockCurve",
      "translation": [
        1.0,
        0.0,
        -0.5
      ]
    }
  ],
  "scenes": [
    {
      "nodes": [
        0
      ]
    }
  ]
}